<svg xmlns="http://www.w3.org/2000/svg" viewBox="0 0 64 64" role="img" aria-label="Minimal pen nib in braces">
  <path d="M17 14C12 14 11 19 13 22C15 25 15 28 15 32C15 36 15 39 13 42C11 45 12 50 17 50" fill="none" stroke="#111111" stroke-width="3.5" stroke-linecap="round"/>
  <path d="M47 14C52 14 53 19 51 22C49 25 49 28 49 32C49 36 49 39 51 42C53 45 52 50 47 50" fill="none" stroke="#111111" stroke-width="3.5" stroke-linecap="round"/>
  <path d="M32 15L23 29L32 49L41 29Z" fill="#111111"/>
  <circle cx="32" cy="35.8" r="2.7" fill="#ffffff"/>
  <path d="M32 35.8L30.3 42.7H33.7Z" fill="#ffffff"/>
</svg>
